<svg xmlns="http://www.w3.org/2000/svg" viewBox="0 0 192 192" width="192" height="192">
  <defs>
    <linearGradient id="bgGrad192" x1="0%" y1="0%" x2="100%" y2="100%">
      <stop offset="0%" stop-color="#181513" />
      <stop offset="100%" stop-color="#241F1C" />
    </linearGradient>
    <linearGradient id="goldGrad192" x1="0%" y1="0%" x2="100%" y2="100%">
      <stop offset="0%" stop-color="#E2C275" />
      <stop offset="50%" stop-color="#B68628" />
      <stop offset="100%" stop-color="#8C6318" />
    </linearGradient>
    <linearGradient id="softGold192" x1="0%" y1="0%" x2="0%" y2="100%">
      <stop offset="0%" stop-color="#EAD6A3" />
      <stop offset="100%" stop-color="#B68628" />
    </linearGradient>
  </defs>
  <rect width="192" height="192" rx="42" fill="url(#bgGrad192)" />
  <rect x="5" y="5" width="182" height="182" rx="38" fill="none" stroke="url(#goldGrad192)" stroke-width="1.2" stroke-opacity="0.35" />
  
  <!-- Subtle elegant M monogram -->
  <g fill="url(#softGold192)" transform="translate(54, 42) scale(0.38)">
    <path d="M 12 18 C 12 18 24 18 34 18 C 34 32 30 50 30 185 C 30 198 34 204 38 204 L 8 204 C 12 204 16 198 16 185 C 16 50 12 32 8 18 Z" />
    <polygon points="30,22 115,178 128,178 48,22" />
    <polygon points="120,178 127,178 200,26 193,22" />
    <path d="M 198 18 C 198 18 210 18 220 18 C 220 32 216 50 216 185 C 216 198 220 204 224 204 L 194 204 C 198 204 202 198 202 185 C 202 50 198 32 194 18 Z" />
  </g>
  
  <text x="96" y="156" font-family="'Cinzel', 'Plus Jakarta Sans', -apple-system, serif" font-size="12" font-weight="600" letter-spacing="5" fill="url(#goldGrad192)" text-anchor="middle">LOUIS</text>
</svg>
